<svg xmlns="http://www.w3.org/2000/svg" viewBox="0 0 700 560"><rect width="700" height="560" opacity="0"/><path d="M373.61,429.807c19.261-10.576,34.853-19.983,65.477-29.215L326.989,338.5l-9.145-2.778,2.546,21.839-117.039-37.3-3.868-20.5-27.344-8.306-27.818,23.084L99.537,466.568l11.837,5.406-9.7,8.394,42.343,34.617,97.669-59.652,20.193-34.411,93.746,16.427Zm-202.244-7.442,21.176-52.9-1.854-11.906,8.345,3.06,27.385,15.465Z" fill="#dfecfc"/><polygon points="409.202 350.705 296.079 320.266 203.355 324.283 320.393 362.3 322.134 362.072 405.87 355.032 409.201 350.705 409.201 350.705 409.202 350.705" fill="#edebe2"/><path d="M374.7,112.987H359.9l14.8-8.609-11.078-2.987,14.507-3.607-9.116-4.12,17.79-2.886s-9.929-8.1-8.674-8.172,11.146,0,11.146,0V77.179l19.758,3.3-3.489-6.182,22.882,13.188s-3.71-12.364,0-8.654,17.314,15.25,17.314,15.25l-2.376,45.332-6.741-5.98-6.55,11.543-3.631-30.465L397.3,118.134l-22.6-5.142" fill="#665c56"/><polygon points="443.363 139.407 436.625 133.43 430.075 144.973 426.444 114.508 397.303 118.134 374.702 112.992 374.702 112.987 373.349 112.987 373.349 149.952 378.688 160.178 391.211 154.228 397.308 157.485 404.06 154.652 412.477 158.456 419.563 161.658 430.071 144.968 432.495 170.538 408.543 189.721 391.285 188.792 390.04 196.427 401.41 217.298 443.638 180.038 436.03 153.543 443.363 139.407" fill="#f6e8d5"/><path d="M601.45,309.756c-3.613-96.364-55.163-137.1-160.515-139.132l2.7,9.414L401.41,217.3l-11.37-20.871,1.245-7.635-4.16-.224-8.689-14.8c-68.339,9.247-90.325,37.289-106.415,70.02l-76.7-22.721-9.066,8.6,17.1,90.6,117.039,37.3-2.546-21.839,9.145,2.778L450.4,394.452l-.707,3.46-34.578,12.029-59.491,27.408-93.746-16.427-20.193,34.411L146.617,513.4c21.954,20.9,50.8,25.766,56.74,25.766H431.663C532.853,539.161,605.159,408.662,601.45,309.756Z" fill="#fff"/><path d="M373.349,149.952l5.339,10.226,12.523-5.95,6.1,3.257,6.752-2.833,15.5,7.006,10.508-16.69,2.424,25.57-23.952,19.183-21.418-1.153L373.349,165.11Z" fill="#665c56"/><path d="M388.249,163.2l19.646,1.034-4.769,5.066-11.4-.6Z" fill="#f6e8d5"/><path d="M510.365,223.074l-31.89-22.859a1.181,1.181,0,0,1-.457-1.25l2.772-10.907a1.178,1.178,0,0,0-1.56-1.393c-.028.011-.056.02-.084.029a1.181,1.181,0,0,1-1.466-.8l-3.838-13.067a1.179,1.179,0,0,0-1.131-.847h-2.472a1.178,1.178,0,0,1-1.178-1.179v-3.225a1.18,1.18,0,0,0-.932-1.153l-30.265-6.493,5.774,20.107L401.41,217.3l-11.37-20.871.079-.484s0-.008,0-.013l1.212-7.447a1.079,1.079,0,0,0,.014-.126,1.179,1.179,0,0,0-1.114-1.24l-2.5-.136a1.176,1.176,0,0,1-.929-.54l-12.279-19.128a1.18,1.18,0,0,0-1.45-.45l-6.715,2.828a1.18,1.18,0,0,0-.647,1.5l1.686,4.529a1.179,1.179,0,0,1-1.211,1.587l-1.9-.168a1.178,1.178,0,0,0-1.212.784l-3.087,8.773a1.179,1.179,0,0,1-.932.774l-24.735,3.847a1.177,1.177,0,0,0-.816.535L319.594,213.9a.964.964,0,0,1-.058.084L292.71,249.344a1.2,1.2,0,0,0-.217.512l7.3,2.163,9.881,13.643,3.979,34.122,21.608-31.356a1.18,1.18,0,0,1,2.121.931l-14.477,58.125,86.3,23.221h0l-3.331,4.327-41.2,3.464,75.42,42.32,10.412-3.378,9.107-24.785a1.18,1.18,0,0,1,1.111-.773h21.122c2.5,0,16.743-9.1,19.593-10.94a1.174,1.174,0,0,0,.535-.909l8.888-135.922A1.181,1.181,0,0,0,510.365,223.074Z" fill="#98b7ff"/><polygon points="226.418 376.083 199.033 360.618 190.688 357.558 192.542 369.464 171.366 422.365 226.418 376.083" fill="#fff"/><polygon points="330.907 298.015 314.353 305.785 315.309 313.982 326.678 308.365 316.461 318.536 316.113 320.882 317.858 335.844 320.394 336.335 323.478 322.499 334.406 317.168 327.76 325.046 333.169 340.348 338.733 335.096 337.311 327.824 341.785 324.693 366.344 333.036 373.187 332.817 375.648 309.138 330.907 298.015" fill="#f6e8d5"/><polygon points="101.67 480.368 106.943 475.98 111.374 471.974 102.334 467.845 73.046 495.85 53.109 503.681 53.114 503.685 30.27 509.261 9.09 506.074 16.315 532.838 49.093 547.561 81.497 541.354 115.583 541.34 129.097 539.838 134.468 517.758 140.336 511.978 101.67 480.368" fill="#fff"/><path d="M657.654,552.161H594.375a1.978,1.978,0,0,1-1.978-1.977h0V478.8a32.628,32.628,0,0,1,32.629-32.628h0A32.628,32.628,0,0,1,657.654,478.8h0v73.357Z" fill="#fff"/><polygon points="668.73 380.05 674.689 370.709 698 371.809 696.145 344.72 666.973 343.703 659.063 331.997 665.792 321.355 694.645 322.215 673.164 296.92 636.516 287.05 624.202 303.1 626.353 331.468 602.454 316.042 582.474 319.203 573.658 356.121 585.635 387.069 598.649 361.303 611.212 360.468 617.724 373.005 607.231 394.042 591.318 386.547 556.724 396.865 569.409 363.06 560.098 339.135 511.938 338.16 476.792 361.361 512.255 370.552 516.68 385.903 502.888 397.36 466.981 388.25 455.11 420.602 480.886 428.265 487.855 441.029 477.231 451.468 450.633 446.565 451.302 495.144 496.828 499.169 496.755 472.399 507.897 462.522 521.089 467.395 523.033 496.497 559.108 486.991 552.5 450.542 564.882 437.574 579.895 443.049 586.613 479.062 612.187 445.6 614.186 404.827 629.893 414.262 637.771 392.674 648.825 391.893 655.078 401.82 649.127 422.056 684.456 429.038 695.666 392.43 674.464 390.28 668.73 380.05" fill="#cef2cf"/><ellipse cx="115.988" cy="527.69" rx="10.111" ry="5.898" transform="translate(-248.306 128.691) rotate(-30)" fill="#dfecfc"/><path d="M9.088,506.074,1.776,513.8,10.1,540.406l35.882,16.47,35.509-5.043,28.177,1.951,18.188-2.717,2.727-11.547-15.011,1.818-34.086.014-32.4,6.207L16.307,532.836Z" fill="#dfecfc"/><circle cx="117.845" cy="206.724" r="43.597" fill="#eee0fa"/><path d="M170.124,228.425l-24.523,2.7-13.981-6.564-3.224,5.589-2.514-4.516L118.417,233,100.89,231.52l3.317-4.863-11.614-5.893,18.42-13.3,15.867-66.555,1.126,4.218s16.873,63.516,17.013,63.627Z" fill="#fff"/><path d="M255.47,14.164l-1.859.553a54.82,54.82,0,1,0-33.626,98.111c.475,0,.943-.024,1.414-.036l34.069,44.3,47.116-61.3,8.1-64.618Z" fill="#C6D4F4"/><path d="M111.935,535.884c-2.5,0-4.557-.886-5.569-2.638-.973-1.686-.8-3.848.477-6.089A16.657,16.657,0,0,1,120.05,519.5h.049c2.581.011,4.538.946,5.511,2.631,1.934,3.35-.778,8.414-6.173,11.529A15.4,15.4,0,0,1,111.935,535.884Zm8.114-14.381a13.441,13.441,0,0,0-6.51,1.946h0a13.4,13.4,0,0,0-4.959,4.7c-.913,1.6-1.084,3.053-.482,4.1,1.328,2.3,6.062,2.156,10.339-.314s6.768-6.5,5.441-8.8c-.6-1.044-1.948-1.623-3.789-1.632Zm-7.01,1.079h0Z" fill="#232639"/><path d="M247.779,298.913a4.948,4.948,0,0,1-3.744-2.152,12.807,12.807,0,0,1-2.4-5.7c-.857-4.888.763-9.118,3.687-9.632h0c2.916-.5,5.886,2.914,6.743,7.8a12.8,12.8,0,0,1-.319,6.178c-.665,1.963-1.862,3.188-3.368,3.453A3.542,3.542,0,0,1,247.779,298.913ZM245.667,283.4h0c-1.535.268-2.76,3.34-2.063,7.315a10.778,10.778,0,0,0,1.994,4.8,2.84,2.84,0,0,0,2.434,1.379c.743-.13,1.406-.9,1.819-2.125a10.783,10.783,0,0,0,.243-5.189C249.4,285.6,247.208,283.122,245.667,283.4Z" fill="#232639"/><path d="M417.07,138.592l-4.279-.959a1.264,1.264,0,0,0-.245-.024l-7.474.2a1,1,0,0,0-.973,1.027,1.019,1.019,0,0,0,1.027.973l1.808-.049a3.41,3.41,0,0,0-.243,3.589h-1.477a1,1,0,0,0,0,2h6.679a.989.989,0,0,0,.394-.081l3.984-1.71a1,1,0,0,0-.789-1.838l-2.363,1.014a3.32,3.32,0,0,0-.6-3.115l4.117.922a.977.977,0,0,0,.22.025,1,1,0,0,0,.217-1.976Z" fill="#232639"/><path d="M390.62,139.4a1,1,0,0,0,.121-1.992l-7.721-.953a1,1,0,0,0-.238,0l-4.111.476a1,1,0,0,0,.23,1.987l3.993-.463h0a3.389,3.389,0,0,0-.991,2.066h0a3.357,3.357,0,0,0,.057,1l-1.929-1.023a1,1,0,1,0-.937,1.767l3.472,1.841.007,0,0,0a1,1,0,0,0,.331.1c.014,0,.026.011.041.012l6.919.669c.033,0,.065,0,.1,0a1,1,0,0,0,.1-2l-1.567-.152a3.339,3.339,0,0,0,.1-3.593l1.9.235A.861.861,0,0,0,390.62,139.4Z" fill="#232639"/><path d="M403.126,170.3h-.053l-11.4-.6a1,1,0,0,1-.793-.465l-3.473-5.5a1,1,0,0,1,.9-1.533l19.645,1.034a1,1,0,0,1,.676,1.684l-4.769,5.066A1,1,0,0,1,403.126,170.3Zm-10.835-2.572,10.424.549,2.973-3.158-15.561-.818Z" fill="#232639"/><path d="M404.413,131.173l15.452-.2,3.787,6-5.252-2.323-14.218.64Z" fill="#665c56"/><path d="M378.114,132.481,374.5,134l3.017-4.793,14.5,1.45-.31,4.129Z" fill="#665c56"/><path d="M588.429,124.532a1,1,0,0,1-.976-.784l-.975-4.393a1,1,0,0,1,1.952-.434l.6,2.7,2.04-1.871a1,1,0,0,1,1.352,1.475l-3.317,3.041A1,1,0,0,1,588.429,124.532Zm-2.415-11.886a1,1,0,0,0,.759-1.193l-1.658-7.469a1,1,0,1,0-1.952.433l1.658,7.469a1,1,0,0,0,.975.783A1.016,1.016,0,0,0,586.014,112.646ZM582.7,97.708a1,1,0,0,0,.759-1.193L581.8,89.046a1,1,0,0,0-1.952.434l1.658,7.469a1,1,0,0,0,.975.783A1.018,1.018,0,0,0,582.7,97.708Zm-3.315-14.937a1,1,0,0,0,.759-1.193l-.6-2.7,2.64.832a1,1,0,0,0,.6-1.908l-4.293-1.351a1,1,0,0,0-1.276,1.171l.975,4.392a1,1,0,0,0,.975.783A1.016,1.016,0,0,0,579.384,82.771Zm33.242,5.479A1,1,0,0,0,611.972,87l-7.3-2.3a1,1,0,1,0-.6,1.908l7.3,2.3a1,1,0,0,0,1.254-.654Zm-14.594-4.6a1,1,0,0,0-.653-1.255l-7.3-2.3a1,1,0,0,0-.6,1.908l7.3,2.3a1.014,1.014,0,0,0,.3.046A1,1,0,0,0,598.032,83.653Zm22.587,11.726,3.318-3.041a1,1,0,0,0-.375-1.691l-4.292-1.353a1,1,0,0,0-.6,1.909l2.64.832-2.04,1.87a1,1,0,1,0,1.351,1.474Zm-22.558,20.679,5.64-5.169a1,1,0,0,0-1.352-1.475l-5.639,5.169a1,1,0,1,0,1.351,1.475Zm11.279-10.339,5.64-5.17a1,1,0,0,0-1.352-1.474l-5.64,5.17a1,1,0,0,0,1.352,1.474Z" fill="#232639"/><path d="M311.681,31.293a1,1,0,0,0-.016-.294.435.435,0,0,0,0-.051,1,1,0,0,0-.151-.339.189.189,0,0,0-.009-.021c-.02-.029-.051-.044-.074-.07a.969.969,0,0,0-.178-.166.877.877,0,0,0-.152-.079,1.154,1.154,0,0,0-.116-.06L257.04,13.6a.96.96,0,0,0-1.177-.362l-.095-.03a1,1,0,0,0-.58,0L198.1,30.211a1.032,1.032,0,0,0-.11.056,1.018,1.018,0,0,0-.189.1,254.962,254.962,0,0,1-.249.247c0,.006,0,.015-.009.021a1.014,1.014,0,0,0-.136.329,46.773,46.773,0,0,1-.01.362l0,.026,0,.02,9.932,64.569,0,.008c0,.011.008.022.01.033a.966.966,0,0,0,.115.3c.008.015.009.033.018.048s.022.024.032.038.011.022.019.032L254.679,157.7a1.53,1.53,0,0,0,2.556-.608v-.655L303.38,96.4c.012-.015.018-.034.029-.05s.014-.015.02-.023.006-.022.012-.033a.956.956,0,0,0,.121-.313c0-.012.008-.023.01-.035a.281.281,0,0,1,.008-.031Zm-9.889,62.8L284.47,83.047a31.969,31.969,0,0,0-2.54-30.24L309.414,33.3ZM257.235,15.752l51.218,15.776-27.669,19.64a32.608,32.608,0,0,0-3.032-3.5,31.779,31.779,0,0,0-20.516-9.3Zm23.643,43.782c0-.129,0-.259,0-.388A28.234,28.234,0,0,1,270.354,93.87l8.3-23.9A27.271,27.271,0,0,0,280.878,59.534Zm-18.589-2.405a1.682,1.682,0,0,0-.277-3.352c-.046,0-4.66.361-7.611.361-2.77,0-7.474-.358-7.535-.362a1.682,1.682,0,0,0-.269,3.352c.014,0,1.29.16,2.717.253l4.3,11.736-5.76,17.188-9.767-28.941c1.448-.095,2.644-.234,2.653-.235a1.682,1.682,0,0,0-.276-3.352c-.046,0-4.661.361-7.611.361-.282,0-.588,0-.914-.011A28.267,28.267,0,0,1,270.6,46.913a28.674,28.674,0,0,1,2.523,1.881,5.465,5.465,0,0,0-4.437,5.483c0,2.32,1.188,4.227,2.564,6.435l.334.538a14.478,14.478,0,0,1,2.287,7.59,26.161,26.161,0,0,1-2.166,9.128l-2.41,8.026-9.656-28.63C261.082,57.269,262.279,57.13,262.289,57.129Zm1.538,39.865a28.181,28.181,0,0,1-8.8,1.407h-.482a28.175,28.175,0,0,1-7.01-1l7.98-23.1Zm-22.271-1.975a28.246,28.246,0,0,1-14.772-24.708,27.686,27.686,0,0,1,1.954-10.273Zm13.679-79.742V38.293c-.041,0-.081,0-.122,0h-.127a31.808,31.808,0,0,0-22.6,9.467,32.653,32.653,0,0,0-2.759,3.178L200.7,31.522ZM199.719,33.269l28.739,19.29a32.076,32.076,0,0,0-2.565,30.852L209.079,94.119Zm10.064,62.774,16.99-10.821a32.071,32.071,0,0,0,28.337,17.1h.125v52.822Zm47.452,6.2A32.085,32.085,0,0,0,283.6,84.866L301.13,96.044l-43.895,57.112Z" fill="#232639"/><path d="M170.735,227.638l-24.854-19.507-17.992-67.3c0-.021-.013-.037-.015-.056l-.014-.067c0-.016-.013-.028-.017-.044a.97.97,0,0,0-.1-.256.882.882,0,0,0-.075-.1.931.931,0,0,0-.133-.154,1.009,1.009,0,0,0-.253-.156c-.015-.007-.027-.019-.043-.025a33.821,33.821,0,0,1-.365-.075,1.469,1.469,0,0,0-.623.235l-.009,0c-.015.013-.023.032-.037.046a.978.978,0,0,0-.181.219,1.106,1.106,0,0,0-.06.141.993.993,0,0,0-.055.13l-15.779,66.188L92,219.953a1,1,0,0,0,.132,1.7l10.6,5.375-2.673,3.931a1,1,0,0,0,.742,1.559L118.327,234a.819.819,0,0,0,.085,0,.993.993,0,0,0,.695-.29l.01-.007,6.528-6.438,1.876,3.369a1,1,0,0,0,1.739.014l2.759-4.783,13.133,6.165a1,1,0,0,0,.534.088l24.542-2.7a1,1,0,0,0,.507-1.781Zm-27.473-21.563-2.326-1.826-6.145-29.86Zm-23.6,24.291,2.634-28.653a1,1,0,0,0,.027-.3l3.913-42.566,1.211,63.83-1.641,1.627Zm-7.672-22.67h0l12.609-52.89-4.26,46.338-9.971,14.662Zm17.452,14.732L128.1,151.789l15.95,77.513ZM94.5,220.614l15.031-10.854-2.058,10.292-3.612,5.311Zm14.764.36,0,0,10.688-15.716-2.452,26.67-14.834-1.254Zm19.142,7.15-1.287-2.311,1.54-1.519,1.54.723Zm17.836,1.926L141.564,207.3l2.83,2.244a.972.972,0,0,0,.219.133L167.574,227.7Z" fill="#232639"/><path d="M391.71,135.783a1.046,1.046,0,0,1-.167-.014l-13.31-2.254-3.348,1.4a1,1,0,0,1-1.233-1.455l3.018-4.793a1,1,0,0,1,.946-.462l14.5,1.451a1,1,0,0,1,.9,1.07l-.31,4.13a1,1,0,0,1-1,.925Zm-13.6-4.3a1.036,1.036,0,0,1,.167.014l12.514,2.119.155-2.063-12.917-1.292-1,1.592.7-.292A.99.99,0,0,1,378.114,131.481Z" fill="#232639"/><path d="M423.651,137.966a.979.979,0,0,1-.4-.086l-5.036-2.227-13.984.63a.976.976,0,0,1-.756-.3,1,1,0,0,1-.287-.759l.231-4.11a1,1,0,0,1,.985-.945l15.452-.2a1.068,1.068,0,0,1,.859.466l3.787,5.995a1,1,0,0,1-.847,1.534Zm-5.251-4.323a.987.987,0,0,1,.4.086l2.248.994-1.733-2.745-13.96.183-.116,2.074,13.112-.591Z" fill="#232639"/><path d="M697.142,344.651a1,1,0,0,0-.963-.931l-28.662-1-7.26-10.742,6.075-9.607,28.283.843a1.042,1.042,0,0,0,.931-.566,1,1,0,0,0-.139-1.081l-21.481-25.295a1,1,0,0,0-.5-.318l-36.648-9.872a1,1,0,0,0-1.054.358l-12.313,16.051a1,1,0,0,0-.2.683l1.113,14.675-.539,10.766L603,315.2a.987.987,0,0,0-.436-.143c-.016-1.787-.045-3.57-.111-5.341-1.862-49.651-16.45-84.8-44.6-107.441-20.129-16.195-47.648-26.251-83.429-30.453a2.184,2.184,0,0,0-1.712-.844h-2.472a.179.179,0,0,1-.178-.179v-3.224a2.189,2.189,0,0,0-1.723-2.131l-29.678-6.368L437.1,153.65l7.152-13.787c0-.01,0-.022.01-.032s.012-.042.02-.063a.923.923,0,0,0,.041-.129c0-.014.011-.026.014-.041s.013-.055.016-.083.009-.035.01-.053l2.377-45.332a1,1,0,0,0-.352-.815c-.135-.115-13.616-11.556-17.254-15.194-.356-.357-1.442-1.437-2.518-.793-.48.286-1.679,1,.179,8.059l-20.75-11.959a1,1,0,0,0-1.371,1.358l2.461,4.359-17.7-2.952a1,1,0,0,0-1.164.986V81.6c-2.567-.016-9.158-.05-10.2.009a1.1,1.1,0,0,0-1,.749c-.22.674-.427,1.312,7.385,7.788l-15.606,2.531a1,1,0,0,0-.252,1.9l6.491,2.934-11.712,2.911a1,1,0,0,0-.019,1.937l8.763,2.362-12.731,7.4a1,1,0,0,0,.5,1.865h12.451V165.11a.984.984,0,0,0,.074.354c.009.023.018.045.028.068s.02.058.036.085l.191.325-6.715,2.828a2.174,2.174,0,0,0-1.2,2.768l1.167,3.17c-24.194,4.455-43.236,11.841-58.122,22.411-17.68,12.553-27.823,28.333-36.31,45.476l-75.9-22.484a1,1,0,0,0-.973.233l-9.066,8.6a1,1,0,0,0-.294.911L198.2,298.332l-25.765-7.827a1.012,1.012,0,0,0-.929.188l-27.818,23.084a1,1,0,0,0-.321.487L98.578,466.287a1,1,0,0,0,.544,1.192l1.454.664L72.5,494.992,52.77,502.74l-22.546,5.5L9.238,505.085a.881.881,0,0,0-.089,0,.943.943,0,0,0-.13,0,.862.862,0,0,0-.1.015,1.1,1.1,0,0,0-.151.034c-.029.01-.056.025-.085.038a.952.952,0,0,0-.139.07,1,1,0,0,0-.089.072.976.976,0,0,0-.094.076l-7.312,7.725a1,1,0,0,0-.228.986l8.327,26.607a1,1,0,0,0,.538.611l35.882,16.469c.009,0,.019,0,.029.006a.988.988,0,0,0,.387.084h.049l63.687-3.091c.009,0,.016,0,.024-.006.025,0,.05,0,.075,0l18.188-2.717a1,1,0,0,0,.826-.76l2.726-11.548a1,1,0,0,0-.227-.9,1.013,1.013,0,0,0-.866-.326l-.021,0,4.927-20.258,5.024-4.948,2.983,2.44a1,1,0,0,0,1.154.079l1.98-1.209a99.265,99.265,0,0,0,34.569,20.518l-.019.2,1.332.259c10.232,3.466,18.364,4.551,20.962,4.551H431.663c34.585,0,68.124-15.271,97.259-44.182l30.441-8.022a1,1,0,0,0,.729-1.145l-4.252-23.457a261.5,261.5,0,0,0,13.928-22.936l9.249,3.373,6.613,35.454a1,1,0,0,0,1.778.423l4.345-5.685a33.587,33.587,0,0,0-.356,4.819v71.38a2.981,2.981,0,0,0,2.978,2.978h63.279a1,1,0,0,0,1-1V478.8a33.667,33.667,0,0,0-31.567-33.559.981.981,0,0,0,.064-.321V413.782l2.227,1.338a1,1,0,0,0,1.455-.515l7.655-20.98,9.81-.692,5.693,9.038-5.824,19.8a1,1,0,0,0,.766,1.264l35.329,6.981a.989.989,0,0,0,.194.019,1,1,0,0,0,.956-.708l11.21-36.607a1,1,0,0,0-.855-1.288l-20.685-2.1-5.187-9.254,5.325-8.347,22.733,1.072a.963.963,0,0,0,.761-.3,1,1,0,0,0,.284-.767ZM556.6,203.836c27.669,22.261,42.013,56.92,43.852,105.957.069,1.836.1,3.684.112,5.537l-18.245,2.886a1,1,0,0,0-.816.755l-8.817,36.917a1,1,0,0,0,.04.594L584.7,387.43c.006.014.016.025.023.039l-24.875,7.419,5.509-18.188,4.986-13.288a1,1,0,0,0,0-.714l-9.311-23.926,0,0c0-.01-.011-.017-.015-.026a.963.963,0,0,0-.173-.268.816.816,0,0,0-.074-.07,1.02,1.02,0,0,0-.206-.145.749.749,0,0,0-.094-.047,1,1,0,0,0-.348-.078l-48.16-.974a1.118,1.118,0,0,0-.571.165l-7.246,4.783,7.712-117.935a2.169,2.169,0,0,0-.906-1.912L479.056,199.4a.18.18,0,0,1-.069-.19L481.76,188.3a2.162,2.162,0,0,0-.075-1.309c-.021-.057-.053-.106-.079-.16l.1-.037a1,1,0,0,0-.709-1.871l-2.128.807h0a.21.21,0,0,1-.223-.122l-3.432-11.687C510.105,178.151,536.954,188.032,556.6,203.836ZM442.438,179.489a.178.178,0,0,1-.072.2l.059.087-40.737,35.945-10.606-19.47.377-2.313h19.574a1,1,0,0,0,.722-.309l21.461-22.4c.007-.008.01-.019.017-.027a.976.976,0,0,0,.187-.289l0-.016a1.01,1.01,0,0,0,.061-.309c0-.024,0-.047,0-.07a.61.61,0,0,0,0-.074l-.788-8.313,3.06-5.9,1.131,3.94v0l.012.044ZM377.8,160.641a1,1,0,0,0,1.315.44l12.068-5.733,5.652,3.019a.99.99,0,0,0,.858.04l6.35-2.664,15.106,6.826a1,1,0,0,0,1.258-.378l8.944-14.206,2.095,22.109-22.323,17.878-16.843-.162a2.15,2.15,0,0,0-2-1.691l-2.509-.137a.177.177,0,0,1-.139-.081L376.849,169.1l-2.5-4.257v-10.81Zm-3.453-10.934v-35.72h.219l22.514,5.121a1.023,1.023,0,0,0,.345.017l28.143-3.5,3.469,29.106-9.859,15.657-14.709-6.646a1,1,0,0,0-.8-.011l-6.313,2.648-5.677-3.032a1,1,0,0,0-.9-.021l-11.653,5.537Zm58.005,8.752L431.1,145.2l5.789-10.2,5.23,4.641Zm10.121-21.2-4.594-4.076,5.325-9.865Zm-78.868-25.274,11.6-6.744a1,1,0,0,0-.243-1.83l-7.352-1.983,10.763-2.675a1,1,0,0,0,.171-1.882l-6.093-2.753,14.514-2.355A1,1,0,0,0,387.437,90c-2.81-2.294-5.827-4.894-7.405-6.425,2.483-.011,6.743.01,9.238.028a1.2,1.2,0,0,0,.712-.29,1,1,0,0,0,.295-.71V78.36l18.593,3.1a1,1,0,0,0,1.036-1.477l-1.693-3,19.715,11.362a1,1,0,0,0,1.458-1.153,39.389,39.389,0,0,1-1.618-7.614c3.45,3.436,14.694,13.021,16.95,14.938l-1.266,24.133-7.707,14.281c-.01.018-.01.038-.019.057l-5.018,8.842-3.27-27.442a1,1,0,0,0-.994-.882,1.016,1.016,0,0,0-.123.008l-28.967,3.6-22.334-5.082a1.014,1.014,0,0,0-.318-.051Zm.586,66.147,1.9.168a2.2,2.2,0,0,0,1.157-.227L383.47,201.92a1,1,0,1,0,1.654-1.125l-16.251-23.886a.984.984,0,0,0-.461-.349,2,2,0,0,0,.045-.233,2.2,2.2,0,0,0-.128-.956l-1.687-4.53a.179.179,0,0,1,.1-.228l6.716-2.828a.179.179,0,0,1,.219.068l1.466,2.283,11.122,18.939a1,1,0,0,0,.808.492l3.043.164-.79,4.858-2.192-3.764a1,1,0,0,0-1.708,1.041l9.357,15.355,5.751,10.556a1,1,0,0,0,.7.506,1.022,1.022,0,0,0,.174.015,1,1,0,0,0,.661-.25l42.184-37.221,14.856-10a1,1,0,0,0-.273-1.789L439.9,163.388l-.611-2.129L467.92,167.4a.178.178,0,0,1,.141.176V170.8a2.129,2.129,0,0,0,.1.611l-35.8,27.537a1,1,0,0,0,1.22,1.586l35.977-27.675a2.142,2.142,0,0,0,.681.12h2.472a.177.177,0,0,1,.171.13l3.838,13.066a2.245,2.245,0,0,0,.13.321l-27,10.231a1,1,0,0,0,.709,1.871l29.026-11a.2.2,0,0,1,.227.1.181.181,0,0,1,.006.108l-2.772,10.907a2.173,2.173,0,0,0-.052.524,1.029,1.029,0,0,0-.192,0l-54.194,10.425a1,1,0,0,0,.331,1.973l57.046-8.15a1,1,0,0,0,.7-.454l29.092,20.854a.184.184,0,0,1,.075.157l-7.811,119.448-25.805,17.036a1,1,0,0,0,.3,1.8l14.648,3.8c-4.836,2.868-8.277,4.648-9.261,4.74L373.6,338.534l.584-5.611v0l2.357-22.674,69.084,7.92h.006l26.925,3.09a.888.888,0,0,0,.115.007,1,1,0,0,0,.112-1.993l-21.451-2.462.787-6.054h12.721a1,1,0,0,0,0-2H457V274.521a1,1,0,1,0-2,0v34.235h-3.762a1,1,0,0,0-.991.871l-.9,6.953-73.511-8.427-43.749-10.876,11.545-54.9a1,1,0,0,0-.119-.716l-1.958-3.3a1,1,0,1,0-1.719,1.021l1.758,2.961-2.087,9.928a.99.99,0,0,0-.25.254l-25.637,38.292-2.946-25.272a.991.991,0,0,0-.184-.47L300.6,251.432a.991.991,0,0,0-.526-.372l-6.053-1.793,26.3-34.671c.042-.055.081-.112.114-.164l13.905-22.048a.177.177,0,0,1,.124-.08l20.032-3.115a1.016,1.016,0,0,0,.237.182l23.337,12.863a1,1,0,0,0,1.08-1.678l-18.218-13.562,3.076-8.742A.19.19,0,0,1,364.193,178.134Zm134.493,207.6c-7.515,1.047-14.886,2.377-22.095,3.923l-9.363-2.375a1,1,0,0,0-1.185.625l-1.7,4.621q-6.2,1.579-12.208,3.347L460.545,373c.025-.069.09-.133.162-.116h21.129c.011,0,.021,0,.033-.006,1.661-.029,6.844-2.9,12.042-6.045l17.541,4.546,4.086,14.174-12.9,10.714-21.617-5.484c5.88-1.183,11.861-2.221,17.939-3.068a1,1,0,0,0-.276-1.98ZM348.437,347.788l-29.04-7.377-.388-3.325,1.195.231a1,1,0,0,0,1.166-.764l1.776-7.968,5.309,1.428,3.771,10.667a1,1,0,0,0,1.629.395l5.565-5.251a1,1,0,0,0,.295-.92l-.384-1.964,31.943,8.6-.156,1.5a1,1,0,0,0,.683,1.053l20.771,6.8-71.359,5.1-.542-4.645,27.577-1.586a1,1,0,0,0,.189-1.967ZM317.4,319.01l9.982-9.936a1,1,0,0,0-1.148-1.606l-10.1,4.99-.708-6.074,15.581-7.313L374.564,309.9l-2.282,21.947-5.788.185-24.387-8.284a1.012,1.012,0,0,0-.9.127l-4.474,3.131a1,1,0,0,0-.408,1.012l1.316,6.73-4.046,3.819-4.706-13.313,6.276-7.44a1,1,0,0,0-1.2-1.543L323.04,321.6a1,1,0,0,0-.538.681l-2.873,12.887-.863-.166L317.122,320.9Zm-.742-2.083-.275-2.36,5.255-2.6Zm-1.473-12.638-.5-4.248,21.251-30.836-5.912,28.118Zm56.887,29.564-.55,5.294v0l-.039.369-32.58-8.767-.485-2.482,3.525-2.468,24.08,8.18a.859.859,0,0,0,.353.052Zm-45.256-8.474.829,2.345-4.065-1.093.768-3.445,6.239-3.043L327,324.4A1,1,0,0,0,326.817,325.379ZM397.6,352.536l5.318,1.741-81.372,6.842-.116-3.144Zm10.137,3.319,50.859,16.654-8.849,24.081q-4.911,1.484-9.674,3.068L368.4,359.173ZM308.971,198.749c13.8-9.8,31.263-16.824,53.21-21.283-.018.042-.04.081-.055.124l-3.088,8.774a.178.178,0,0,1-.141.117l-24.734,3.847a2.172,2.172,0,0,0-1.51.99L318.74,213.377l-26.765,35.282-18.525-5.487C281.794,226.386,291.77,210.963,308.971,198.749ZM187.339,230.02l8.252-7.827,103.593,30.688,9.528,13.157,10.5,90.1L204.223,319.493Zm-42.145,85.1,27.17-22.546,26.249,7.973,3.743,19.831v3.9a1,1,0,0,0,.69.951l107.72,34.989c-32.027,1.6-69.341,4.059-70.959,4.166h-.027c-.035,0-.069.006-.1.011a1,1,0,0,0-.492.22l-7.476,5.963-31.01-14.1c.8-5.118,2.008-12.982,2.008-14.261,0-.894,0-2.753-1.325-2.974-.779-.133-2.347-.382-7.52,14.126l-2.7-1.228-1.555-15.977a1,1,0,0,0-1.991.194l2.058,21.135-2.018,9.228-28.392,64.349L111.219,470.8l-10.478-4.784ZM193.53,369.31l-1.592-10.224,6.669,2.447,26.386,14.9L173.762,419.07l19.708-49.234A1,1,0,0,0,193.53,369.31ZM109.511,472.542l-3.023,2.516-2.869-3.419Zm-7.348-3.149.372-.356,1.36.621Zm-1.686,1.612,4.019,4.79a.968.968,0,0,0-.461.243l-6.3,6.411-7.742-1.42ZM85.941,517.283,71.9,520.877l-3.052-17.293ZM68.71,500.909l13.052-3.186,4.048,16.892Zm15.526-1.442,18.591,11.663-4.982,3.106-9.487,2.429Zm.015-2.351,2.193-.536a.992.992,0,0,0,.477-.27L101.473,481.5l21.15,17.291-17.909,11.164Zm9.226-10.333-2.259-3.5,4.824.884Zm-5.1-4.209,3.663,5.671-6.347,6.46-3.525.86-6.226-1.1ZM77.344,496.742l-.861.211-.734-.493Zm-4.423.231.928.622-6.634,1.62Zm-6.476,4.489,3.2,18.146L52.361,504.9Zm2.5,20.173L53.2,525.665l-.913-18.2Zm-18.761-16.2.949,18.907-17.656-14.83Zm.26,20.94-9.227,2.362a.96.96,0,0,0-.214.1l-8.7-17.7ZM29.6,510.172,46.967,545.51,17.156,532.121l-6.7-24.83Zm97.441,40.007-17.411,2.6-28.068-1.945a1.136,1.136,0,0,0-.21.008l-35.218,5L10.924,539.683,2.905,514.061l5.682-6L15.341,533.1a1,1,0,0,0,.556.651l32.778,14.723c.02.009.043.01.064.018a1.017,1.017,0,0,0,.172.047.909.909,0,0,0,.1.014c.026,0,.051.011.076.011h0a.99.99,0,0,0,.188-.018l32.312-6.189,33.992-.015a1,1,0,0,0,.109-.006l13.515-1.5a.416.416,0,0,0,.044-.012Zm7.345-33.745-10.32-7.966a1,1,0,0,0-1.475,1.295l4.367,7.5a1,1,0,1,0,1.728-1.006l-1.791-3.076,6.446,4.977-5.018,20.631-12.809,1.551-34.027.015a.972.972,0,0,0-.187.018l-31.652,6.062-7.767-15.805,29.153-7.463a1.014,1.014,0,0,0,.577-.126c.015-.009.025-.023.04-.032l26.839-6.871a1,1,0,0,0,.281-.12l6.3-3.93a.975.975,0,0,0,.347-.217l18.835-11.741,13.507,11.042.007.007,1.066.873Zm4.109-7.251-35.254-28.821,58.913-49.03,9.489-7.9.358-.3c.016-.014.032-.027.047-.042l59.7-49.682.99-.726a.981.981,0,0,0,.281-.331l7.192-5.986,77.378-3.933,2.5.811a.969.969,0,0,0,.309.049.99.99,0,0,0,.437-.114l35.537-3,81.009,40.378a410.3,410.3,0,0,0-63.6,28.088l-4.9,2.055a.989.989,0,0,0-.243-.072L275.968,418.2l10.644-10.133a1,1,0,0,0-1.22-1.572l-17.054,10.681-4.415-.592,7.349-7.9a1,1,0,1,0-1.465-1.361l-8.664,9.318c-.014.014-.017.033-.029.048a.532.532,0,0,0-.048.047l-24.709,33.936Zm322.617,25.178H184.9c-10.91-3.473-24.694-9.825-36.611-20.811L242.2,456.189a1,1,0,0,0,.341-.348l19.844-33.813,1.273.223L356.6,438.578c-11.491,7.03-18.038,11.882-18.248,12.04a1,1,0,0,0,1.2,1.6c.6-.448,52.474-38.895,123.956-57.412l-9.34,25.452a1,1,0,0,0,.654,1.3l25.381,7.545,6.409,11.739L476.9,450.39l-26.086-4.808a1,1,0,0,0-1.182,1l.669,48.578a1,1,0,0,0,.912.982l45.526,4.025a.877.877,0,0,0,.088,0,1,1,0,0,0,1-1l-.072-26.318,10.356-9.181,12.022,4.442,1.9,28.455a1,1,0,0,0,1.252.9l1.7-.448C505.292,515.862,483.656,528.489,461.113,534.361Zm94.215-73.825-1.753-9.672,11.579-12.127,2.724.993C563.987,446.909,559.8,453.864,555.328,460.536Zm31.856,16.133-6.306-33.8a1,1,0,0,0-.64-.756l-15.013-5.476a1,1,0,0,0-1.066.249l-12.382,12.968a1,1,0,0,0-.261.869l6.444,35.54-34.01,8.962-1.863-27.893a1,1,0,0,0-.651-.873l-13.192-4.873a1.009,1.009,0,0,0-1.011.191l-11.141,9.877a1,1,0,0,0-.337.751l.07,25.675-43.536-3.85-.639-46.457,25.4,4.682a1,1,0,0,0,.882-.271l10.623-10.439a1,1,0,0,0,.178-1.193l-6.969-12.763a1,1,0,0,0-.593-.48l-24.755-7.359,11.193-30.5,35.033,8.888a1.01,1.01,0,0,0,.885-.2l13.792-11.457a.977.977,0,0,0,.215-.261c.017-.028.027-.056.041-.085a1,1,0,0,0,.079-.245c.006-.034.013-.066.016-.1a.991.991,0,0,0-.029-.354l-4.425-15.35a1,1,0,0,0-.71-.691l-33.287-8.627,33.01-21.792,47.18.956L567.5,360.9,502.645,440.8a1.308,1.308,0,0,0,1.852,1.834l54.375-45.259a1.406,1.406,0,0,0,.126-.142l32.239-9.616,22.278,10.492L611.2,445.24Zm2.939-90.81-3.246.968,6.437-12.745Q591.859,379.988,590.123,385.859Zm6.945-19.209,2.216-4.387,11.343-.755,5.975,11.506-9.829,19.706L592.2,385.855Q595,376.3,597.068,366.65Zm18.036,39.9,10.047,6.035v32.344a.955.955,0,0,0,.052.256c-.059,0-.118,0-.178,0a33.372,33.372,0,0,0-13.394,2.8l1.351-1.768a1,1,0,0,0,.2-.558Zm41.55,72.259v72.358H594.375a.979.979,0,0,1-.978-.978V478.8a31.429,31.429,0,0,1,1.173-8.506l14.219-18.605A31.586,31.586,0,0,1,656.654,478.8ZM674.735,369.71a.992.992,0,0,0-.89.461l-5.959,9.341a1,1,0,0,0-.028,1.027l5.734,10.23a1,1,0,0,0,.771.506l19.99,2.027-10.589,34.579L650.4,421.288l5.643-19.186a1,1,0,0,0-.114-.815l-6.253-9.927a1,1,0,0,0-.917-.464l-11.053.78a1,1,0,0,0-.869.654l-7.463,20.451-14.154-8.5.331-6.742a1,1,0,0,0-.573-.954l-6.39-3.009,10.036-20.121a1,1,0,0,0-.008-.908L612.1,360.006a1.026,1.026,0,0,0-.954-.537l-12.564.836a1,1,0,0,0-.826.547l-12,23.759L574.7,356.05l8.589-35.964,18.941-3,21.43,13.832-.07,1.406a.86.86,0,0,0,.135.509l33.53,52.618a.869.869,0,0,0,1.547-.774l-31.684-83.743,9.781-12.749,35.7,9.616,19.823,23.344-26.606-.793a1,1,0,0,0-.875.466l-6.729,10.641a1,1,0,0,0,.017,1.094l7.911,11.7a1,1,0,0,0,.794.44l28.27.985,1.717,25.07Z" fill="#232639"/></svg>